<svg preserveAspectRatio="none" overflow="visible" style="display: block;" width="18" height="18" viewBox="0 0 18 18" fill="none" xmlns="http://www.w3.org/2000/svg">
<g id="pantone-line">
<path id="Vector" d="M4.32235 5.99994L4.10098 5.45203C3.94582 5.06798 4.13137 4.63085 4.51542 4.47568L11.4693 1.66614C11.8533 1.51097 12.2905 1.69652 12.4456 2.08057L16.6599 12.5114C16.8151 12.8954 16.6296 13.3326 16.2456 13.4877L9.29163 16.2973C8.90763 16.4524 8.47045 16.2669 8.31528 15.8828L8.24905 15.7189V15.7499H5.24906C4.83484 15.7499 4.49906 15.4141 4.49906 14.9999V14.7977L1.98682 13.7827C1.60277 13.6275 1.41722 13.1904 1.57239 12.8063L4.32235 5.99994ZM5.99906 14.2499H7.65558L5.99906 10.1499V14.2499ZM4.49906 9.56677L3.24412 12.6729L4.49906 13.2063V9.56677ZM5.77272 5.58551L9.42513 14.6255L14.9883 12.3779L11.3358 3.33787L5.77272 5.58551ZM8.00635 7.10976C7.62228 7.26493 7.18518 7.07938 7.03001 6.69533C6.87484 6.31128 7.06039 5.87416 7.44445 5.71899C7.82853 5.56382 8.26563 5.74936 8.4208 6.13342C8.57598 6.51747 8.39043 6.95459 8.00635 7.10976Z" fill="black"/>
</g>
</svg>
